<svg xmlns="http://www.w3.org/2000/svg" width="324" height="325" viewBox="0 0 324 325">
  <defs>
    <filter id="a" width="200%" height="200%" x="-50%" y="-50%" filterUnits="objectBoundingBox">
      <feOffset in="SourceAlpha" result="shadowOffsetOuter1"/>
      <feGaussianBlur stdDeviation="33" in="shadowOffsetOuter1" result="shadowBlurOuter1"/>
      <feColorMatrix values="0 0 0 0 0 0 0 0 0 0 0 0 0 0 0 0 0 0 0.077 0" in="shadowBlurOuter1" result="shadowMatrixOuter1"/>
      <feMerge>
        <feMergeNode in="shadowMatrixOuter1"/>
        <feMergeNode in="SourceGraphic"/>
      </feMerge>
    </filter>
  </defs>
  <g fill="none" fill-rule="evenodd" transform="translate(63 64)">
    <ellipse cx="98.88" cy="98.5" fill="#FFF" filter="url(#a)" rx="98.88" ry="98.5"/>
    <path fill="#F9B51D" d="M165.16 88l-.57.02-.58.04-.56.07-.55.1-.53.12-.53.15-.5.17-.52.2-.5.23-.47.24-.47.27-.45.3-.44.3-.43.34-.4.35-.4.35-.36.4-.34.4-.33.4-.3.45-.3.45-.26.46-.25.5-.22.48-.2.5-.18.52-.15.53-.12.53-.1.55-.07.56-.04.56-.02.57.02.57.04.56.07.56.1.54.12.53.15.53.18.52.2.5.22.5.25.48.26.47.3.45.3.43.33.42.35.4.38.4.4.37.4.34.4.33.45.33.45.28.47.28.48.25.5.22.5.2.5.18.54.15.54.12.56.1.56.07.57.04.56.03.57-.02.57-.03.56-.07.55-.1.55-.12.53-.15.52-.18.5-.2.5-.22.5-.25.45-.27.46-.27.45-.32.42-.32.4-.34.4-.38.36-.38.35-.4.33-.43.33-.43.3-.45.26-.47.23-.48.23-.5.2-.5.17-.52.15-.53.13-.53.1-.55.08-.57.04-.56V98.5l-.04-.56-.07-.55-.1-.54-.12-.53-.15-.53-.17-.52-.2-.5-.23-.5-.24-.47-.28-.45-.3-.45-.3-.44-.34-.42-.35-.4-.37-.4-.4-.35-.4-.36-.4-.33-.45-.3-.45-.3-.46-.26-.5-.24-.5-.23-.5-.2-.52-.17-.53-.15-.54-.12-.54-.1-.56-.07-.57-.04-.57-.02z"/>
    <path fill="#E30620" d="M150.2 88l-.56.02-.57.04-.56.07-.54.1-.54.12-.53.15-.53.17-.5.2-.5.23-.48.24-.48.27-.46.3-.43.3-.42.34-.4.35-.4.35-.36.4-.35.4-.34.4-.3.45-.3.45-.28.46-.24.5-.23.48-.18.5-.18.52-.15.53-.14.53-.1.55-.07.56-.05.56v1.14l.04.56.07.56.1.54.12.53.14.53.18.52.2.5.22.5.24.48.28.47.3.45.3.43.33.42.34.4.37.4.4.37.4.34.43.33.43.33.46.28.47.28.47.25.5.22.5.2.52.18.52.15.54.12.55.1.57.07.57.04.57.03.6-.02.55-.03.56-.07.56-.1.54-.12.53-.15.52-.18.5-.2.5-.22.47-.25.47-.27.44-.27.44-.32.42-.32.4-.34.4-.38.36-.38.35-.4.34-.43.3-.43.3-.45.27-.47.25-.48.23-.5.2-.5.17-.52.15-.53.12-.53.1-.55.07-.57.03-.56.02-.58-.02-.58-.04-.56-.08-.55-.1-.54-.12-.53-.15-.53-.17-.52-.2-.5-.23-.5-.24-.47-.26-.45-.3-.45-.3-.44-.33-.42-.34-.4-.37-.4-.4-.35-.4-.36-.42-.33-.44-.3-.45-.3-.48-.26-.47-.24-.5-.23-.5-.2-.52-.17-.53-.15-.54-.12-.55-.1-.55-.07-.56-.04-.6-.02z"/>
    <path fill="#F9B51D" d="M156.35 92.3h6v-.65h-5.48l-.52.66zM155.36 93.64h6.66v-.66h-6.32l-.34.66zM154.7 94.97H162v-.67h-7.07l-.26.67zM154.36 96.3h8v-.67h-7.8l-.2.66zM154.55 102.93h7.8v-.67h-8l.2.67zM154.97 104.25h7.05v-.66h-7.33l.27.65zM156.07 105.58h6.28v-.66h-6.66l.37.66zM156.88 106.9h5.14v-.65h-5.67l.53.66zM154.02 97.62h8.33v-.66h-8.2l-.13.66zM159.02 101.6h3v-.66h-2.9l-.1.66zM159.35 100.27h3v-.66h-2.88l-.12.67zM153.7 99.6h.66v.67h-.64l-.03-.66z"/>
    <path fill="#FEFEFE" d="M152.17 98.87h-.11l-.05-.02h-.03l-.05-.02h-.1l-.05-.02h-.62l-.08.02H151l-.06.04-.05.02-.07.02-.05.03-.03.04-.04.03v.04l-.03.04v.13l.02.06.02.05.04.06.07.07.1.05.1.05.1.04.13.03.12.04.13.05.13.03.1.07.1.07.1.1.08.1.07.14.04.18.03.2-.02.22v.17l-.06.15-.06.14-.07.12-.08.1-.1.1-.1.07-.12.07-.12.06-.12.04-.13.04-.13.03h-.13l-.12.02h-1.11l-.07-.02h-.08l-.07-.03h-.06l-.07-.02-.06-.02-.05-.02h-.06l-.07-.03.17-.8h.07l.05.03h.07l.05.03h.08l.08.03h.1l.1.03h.2l.1.02h.54l.08-.04.07-.04.04-.05.04-.07.03-.05.03-.06.02-.06v-.1l-.03-.1-.06-.06-.1-.07-.1-.05-.14-.05-.15-.06-.14-.05-.15-.07-.14-.08-.13-.1-.1-.1-.1-.14-.08-.16-.03-.2V99l.04-.14.04-.12.04-.12.06-.1.07-.1.08-.1.1-.07.1-.07.12-.06.13-.05.15-.04.17-.03.18-.03h.2l.23-.02h.49l.1.02H151.94l.06.02h.13l.05.02h.08l.03.02h.06l-.2.83z"/>
    <path stroke="#FEFEFE" stroke-width=".22" d="M152.17 98.87h-.11l-.05-.02h-.03l-.05-.02h-.1l-.05-.02h-.62l-.08.02H151l-.06.04-.05.02-.07.02-.05.03-.03.04-.04.03v.04l-.03.04v.13l.02.06.02.05.04.06.07.07.1.05.1.05.1.04.13.03.12.04.13.05.13.03.1.07.1.07.1.1.08.1.07.14.04.18.03.2-.02.22v.17l-.06.15-.06.14-.07.12-.08.1-.1.1-.1.07-.12.07-.12.06-.12.04-.13.04-.13.03h-.13l-.12.02h-1.11l-.07-.02h-.08l-.07-.03h-.06l-.07-.02-.06-.02-.05-.02h-.06l-.07-.03.17-.8h.07l.05.03h.07l.05.03h.08l.08.03h.1l.1.03h.2l.1.02h.54l.08-.04.07-.04.04-.05.04-.07.03-.05.03-.06.02-.06v-.1l-.03-.1-.06-.06-.1-.07-.1-.05-.14-.05-.15-.06-.14-.05-.15-.07-.14-.08-.13-.1-.1-.1-.1-.14-.08-.16-.03-.2V99l.04-.14.04-.12.04-.12.06-.1.07-.1.08-.1.1-.07.1-.07.12-.06.13-.05.15-.04.17-.03.18-.03h.2l.23-.02h.49l.1.02H151.94l.06.02h.13l.05.02h.08l.03.02h.06l-.2.83"/>
    <path fill="#FEFEFE" d="M153.12 96.96h1.08l-.16.9h.65l-.15.87-.68-.02-.38 2.13v.14l.05.05.05.04.07.02.08.03.08.02h.34l.06-.03.05-.02h.03l.03-.02-.13.7-.03.02h-.02l-.03.03-.03.02h-.04l-.03.03H154l-.04.02h-.04l-.04.02h-.15l-.06.02h-.71l-.13-.04-.1-.02-.1-.04-.06-.03-.07-.06-.04-.05-.04-.06-.03-.07-.03-.06V101.1l.75-4.14z"/>
    <path stroke="#FEFEFE" stroke-width=".22" d="M153.12 96.96h1.08l-.16.9h.65l-.15.87-.68-.02-.38 2.13v.14l.05.05.05.04.07.02.08.03.08.02h.34l.06-.03.05-.02h.03l.03-.02-.13.7-.03.02h-.02l-.03.03-.03.02h-.04l-.03.03H154l-.04.02h-.04l-.04.02h-.15l-.06.02h-.71l-.13-.04-.1-.02-.1-.04-.06-.03-.07-.06-.04-.05-.04-.06-.03-.07-.03-.06V101.1l.75-4.14"/>
    <path fill="#FEFEFE" d="M155.46 100.23v.25l.04.06.03.07.04.07.04.06.07.06.05.06.06.05.07.04.07.04.08.05.07.02.08.02h.2l.1.02h.6l.1-.03.1-.03.1-.03.1-.04.12-.05.1-.06.1-.07-.14.9-.06.03-.06.03h-.05l-.06.03-.06.02-.06.02h-.06l-.07.02H157l-.07.02H156.02l-.2-.03-.18-.06-.18-.05-.18-.08-.17-.1-.15-.1-.15-.12-.13-.15-.1-.17-.1-.2-.06-.2-.03-.25V99.86l.02-.12v-.13l.04-.14.05-.15.04-.15.07-.15.1-.16.1-.16.12-.14.15-.14.17-.12.2-.1.2-.1.25-.07.27-.03.3-.02h.15l.16.02.15.03.16.03.14.06.15.05.12.1.13.1.1.12.1.14.08.18.06.2.02.2v.26l-.03.28-.06.3-.02.22h-2.76l.17-.7H157v-.27l-.03-.08-.03-.07-.02-.07-.04-.05-.04-.04-.04-.05-.05-.02-.06-.03-.07-.03-.06-.03-.06-.02h-.05l-.07-.02h-.07l-.06.02h-.07l-.06.03-.05.04-.06.03-.07.04-.05.06-.05.05-.04.06-.05.06-.04.06-.02.07-.03.07-.02.08-.02.07-.14.76z"/>
    <path stroke="#FEFEFE" stroke-width=".22" d="M155.46 100.23v.25l.04.06.03.07.04.07.04.06.07.06.05.06.06.05.07.04.07.04.08.05.07.02.08.02h.2l.1.02h.6l.1-.03.1-.03.1-.03.1-.04.12-.05.1-.06.1-.07-.14.9-.06.03-.06.03h-.05l-.06.03-.06.02-.06.02h-.06l-.07.02H157l-.07.02H156.02l-.2-.03-.18-.06-.18-.05-.18-.08-.17-.1-.15-.1-.15-.12-.13-.15-.1-.17-.1-.2-.06-.2-.03-.25V99.86l.02-.12v-.13l.04-.14.05-.15.04-.15.07-.15.1-.16.1-.16.12-.14.15-.14.17-.12.2-.1.2-.1.25-.07.27-.03.3-.02h.15l.16.02.15.03.16.03.14.06.15.05.12.1.13.1.1.12.1.14.08.18.06.2.02.2v.26l-.03.28-.06.3-.02.22h-2.76l.17-.7H157v-.27l-.03-.08-.03-.07-.02-.07-.04-.05-.04-.04-.04-.05-.05-.02-.06-.03-.07-.03-.06-.03-.06-.02h-.05l-.07-.02h-.07l-.06.02h-.07l-.06.03-.05.04-.06.03-.07.04-.05.06-.05.05-.04.06-.05.06-.04.06-.02.07-.03.07-.02.08-.02.07-.14.76"/>
    <path fill="#FEFEFE" d="M164.5 98.23l-.06-.03-.04-.02-.06-.02-.05-.03-.07-.02h-.06l-.07-.04-.06-.02-.07-.02h-.07l-.08-.03-.08-.02h-.65l-.1.03-.12.03-.1.05-.1.05-.1.06-.1.07-.1.1-.1.12-.1.12-.07.16-.07.2-.07.2-.06.23-.03.14v.13l-.02.12v.12l.02.12.02.12.03.1.04.12.05.1.07.1.07.08.1.08.1.06.1.06.13.05.14.04h.05l.05.02h.07l.07.02h.35l.1-.02h.1l.08-.04.1-.03.1-.05.08-.05.08-.06.08-.06-.17.98-.03.02-.02.02-.03.02-.04.03-.04.03-.05.02-.07.03-.07.02-.08.02-.1.02h-.1l-.14.02h-.73l-.17-.02-.17-.04-.17-.05-.16-.07-.17-.08-.15-.1-.15-.14-.14-.14-.13-.16-.1-.2-.1-.2-.06-.22-.04-.24-.02-.26v-.3l.05-.3.03-.14.04-.15.03-.15.04-.14.04-.12.06-.12.05-.13.06-.1.06-.12.05-.1.07-.1.06-.1.07-.1.08-.08.07-.08.08-.07.08-.08.1-.08.08-.06.1-.06.1-.05.1-.05.1-.05.1-.04.12-.02.12-.03.12-.03.13-.02.12-.02h.14l.14-.02h.38l.1.02h.12l.1.03.1.03.1.02.1.02.08.02h.08l.07.04.06.02.05.02h.04l.04.03h.02l-.2 1.03z"/>
    <path stroke="#FEFEFE" stroke-width=".22" d="M164.5 98.23l-.06-.03-.04-.02-.06-.02-.05-.03-.07-.02h-.06l-.07-.04-.06-.02-.07-.02h-.07l-.08-.03-.08-.02h-.65l-.1.03-.12.03-.1.05-.1.05-.1.06-.1.07-.1.1-.1.12-.1.12-.07.16-.07.2-.07.2-.06.23-.03.14v.13l-.02.12v.12l.02.12.02.12.03.1.04.12.05.1.07.1.07.08.1.08.1.06.1.06.13.05.14.04h.05l.05.02h.07l.07.02h.35l.1-.02h.1l.08-.04.1-.03.1-.05.08-.05.08-.06.08-.06-.17.98-.03.02-.02.02-.03.02-.04.03-.04.03-.05.02-.07.03-.07.02-.08.02-.1.02h-.1l-.14.02h-.73l-.17-.02-.17-.04-.17-.05-.16-.07-.17-.08-.15-.1-.15-.14-.14-.14-.13-.16-.1-.2-.1-.2-.06-.22-.04-.24-.02-.26v-.3l.05-.3.03-.14.04-.15.03-.15.04-.14.04-.12.06-.12.05-.13.06-.1.06-.12.05-.1.07-.1.06-.1.07-.1.08-.08.07-.08.08-.07.08-.08.1-.08.08-.06.1-.06.1-.05.1-.05.1-.05.1-.04.12-.02.12-.03.12-.03.13-.02.12-.02h.14l.14-.02h.38l.1.02h.12l.1.03.1.03.1.02.1.02.08.02h.08l.07.04.06.02.05.02h.04l.04.03h.02l-.2 1.03"/>
    <path fill="#FEFEFE" d="M173.8 101.88h-1.04l.08-.42v-.04l-.06.08-.07.06-.05.06-.07.06-.07.05-.06.04-.06.03-.08.03-.07.03-.07.02-.07.02h-.1l-.06.02h-.43l-.2-.04-.15-.07-.15-.07-.14-.1-.12-.14-.1-.15-.1-.16-.08-.18-.06-.17-.04-.2-.03-.18V99.9l.05-.2.05-.22.07-.2.08-.2.1-.2.1-.16.1-.15.13-.13.12-.13.13-.1.14-.1.15-.07.14-.07.16-.05.16-.02.15-.02h.37l.1.02.1.03.08.04.07.03.07.04.07.06.06.04.05.05.05.05.05.05.04.05.02.04.03.05.02.03.27-1.47h1.03l-.86 4.92z"/>
    <path stroke="#FEFEFE" stroke-width=".22" d="M173.8 101.88h-1.04l.08-.42v-.04l-.06.08-.07.06-.05.06-.07.06-.07.05-.06.04-.06.03-.08.03-.07.03-.07.02-.07.02h-.1l-.06.02h-.43l-.2-.04-.15-.07-.15-.07-.14-.1-.12-.14-.1-.15-.1-.16-.08-.18-.06-.17-.04-.2-.03-.18V99.9l.05-.2.05-.22.07-.2.08-.2.1-.2.1-.16.1-.15.13-.13.12-.13.13-.1.14-.1.15-.07.14-.07.16-.05.16-.02.15-.02h.37l.1.02.1.03.08.04.07.03.07.04.07.06.06.04.05.05.05.05.05.05.04.05.02.04.03.05.02.03.27-1.47h1.03l-.86 4.92"/>
    <path fill="#F9B51D" d="M171.9 101.27h.13l.1-.03.1-.03.1-.03.08-.05.1-.06.07-.07.07-.08.06-.08.05-.08.06-.1.05-.1.04-.1.02-.1.03-.1.02-.1.02-.12V99.62l-.03-.1-.03-.1-.03-.1-.03-.07-.05-.08-.05-.06-.06-.05-.06-.04-.07-.03h-.08l-.1-.02h-.1l-.1.02-.1.03-.1.04-.08.05-.08.06-.07.06-.06.08-.06.1-.05.08-.07.1-.04.1-.05.1-.03.1-.04.12-.02.12-.02.17v.18l.04.2.05.18.08.16.12.13.13.1.16.02z"/>
    <path fill="#FEFEFE" d="M148.98 101.07l-.15.8h-.9l.02-.15.02-.13v-.1l.03-.07-.05.06-.06.05-.08.05-.07.05-.1.05-.08.05-.1.04-.1.03-.1.03-.1.03h-.1l-.1.02H146.54l-.13-.05-.1-.03-.1-.05-.1-.06-.08-.06-.07-.07-.06-.05-.04-.08-.04-.07-.04-.08-.03-.08-.02-.08v-.08l-.02-.1v-.28l.03-.14.04-.13.04-.12.07-.1.07-.1.07-.1.1-.1.1-.1.1-.06.1-.07.1-.06.12-.04.1-.04.14-.03.12-.03h.1l.05-.02h.1l.06-.02h.12l.07-.02h.76l.03-.08v-.07l.02-.07v-.08l-.05-.07-.04-.07-.06-.05-.07-.04-.07-.03-.1-.02h-.75l-.12.02-.1.02h-.1l-.1.03-.1.02h-.1l-.07.03-.06.02-.05.03-.04.02.25-.87.08-.04.1-.04.08-.02.08-.02.1-.02h.08l.1-.03H147.44l.1-.02h.59l.1.02h.1l.12.04.12.04.1.05.12.04.1.06.1.07.1.08.08.08.07.1.05.1.04.12.02.13V99l-.02.16-.36 1.9z"/>
    <path stroke="#FEFEFE" stroke-width=".22" d="M148.98 101.07l-.15.8h-.9l.02-.15.02-.13v-.1l.03-.07-.05.06-.06.05-.08.05-.07.05-.1.05-.08.05-.1.04-.1.03-.1.03-.1.03h-.1l-.1.02H146.54l-.13-.05-.1-.03-.1-.05-.1-.06-.08-.06-.07-.07-.06-.05-.04-.08-.04-.07-.04-.08-.03-.08-.02-.08v-.08l-.02-.1v-.28l.03-.14.04-.13.04-.12.07-.1.07-.1.07-.1.1-.1.1-.1.1-.06.1-.07.1-.06.12-.04.1-.04.14-.03.12-.03h.1l.05-.02h.1l.06-.02h.12l.07-.02h.76l.03-.08v-.07l.02-.07v-.08l-.05-.07-.04-.07-.06-.05-.07-.04-.07-.03-.1-.02h-.75l-.12.02-.1.02h-.1l-.1.03-.1.02h-.1l-.07.03-.06.02-.05.03-.04.02.25-.87.08-.04.1-.04.08-.02.08-.02.1-.02h.08l.1-.03H147.44l.1-.02h.59l.1.02h.1l.12.04.12.04.1.05.12.04.1.06.1.07.1.08.08.08.07.1.05.1.04.12.02.13V99l-.02.16-.36 1.9"/>
    <path fill="#E30620" d="M148.03 100l-.02-.03-.05-.02h-.37l-.06.02h-.05l-.05.02h-.11l-.04.02-.04.02-.04.02-.05.02-.05.02-.05.03-.05.03-.05.03-.05.03-.04.04-.04.04-.04.06-.03.05-.02.07v.18l.02.1.03.06.05.07.06.03.06.02h.06l.06.02h.1l.1-.02h.1l.1-.03.07-.04.08-.03.06-.03.05-.04.04-.04.05-.04.02-.04.03-.04.03-.04.02-.05.02-.03v-.04l.04-.1.03-.12v-.1l.03-.1z"/>
    <path fill="#FEFEFE" d="M141.08 101.93h-1.04l.87-4.97h1.82l.17 2.95 1.24-2.94h1.9l-.9 4.97h-1.04l.66-3.72h-.04l-1.56 3.73h-1.18v-.15l-.03-.42-.03-.58-.04-.68-.04-.68-.04-.6-.02-.42v-.2h-.07l-.62 3.73z"/>
    <path stroke="#FEFEFE" stroke-width=".22" d="M141.08 101.93h-1.04l.87-4.97h1.82l.17 2.95 1.24-2.94h1.9l-.9 4.97h-1.04l.66-3.72h-.04l-1.56 3.73h-1.18v-.15l-.03-.42-.03-.58-.04-.68-.04-.68-.04-.6-.02-.42v-.2h-.07l-.62 3.73"/>
    <path fill="#FEFEFE" d="M167.6 101.07l-.13.8h-.9v-.43l-.04.06-.05.06-.07.05-.06.06-.08.05-.08.05-.1.05-.08.03-.1.03-.1.03h-.1l-.1.02h-.4l-.13-.05-.12-.03-.1-.05-.1-.06-.07-.06-.07-.07-.05-.05-.05-.08-.04-.07-.03-.08-.03-.08-.02-.08-.02-.08v-.38l.02-.14.03-.13.05-.12.06-.1.08-.1.07-.1.1-.1.08-.1.1-.06.1-.07.1-.06.12-.04.12-.04.12-.03.12-.03h.08l.05-.02h.1l.06-.02h.14l.06-.02h.78v-.08l.03-.07V99.1l-.04-.07-.05-.07-.04-.05-.07-.04-.08-.03-.08-.02h-.76l-.1.02-.13.02h-.1l-.1.03-.1.02h-.1l-.07.03-.06.02-.05.03-.04.02.25-.87.08-.04.08-.04.08-.02.1-.02.08-.02h.1l.08-.03H166.08l.1-.02h.6l.1.02h.1l.12.04.1.04.12.05.12.04.1.06.1.07.1.08.08.08.07.1.04.1.04.12.03.13V99.17l-.4 1.9z"/>
    <path fill="#FEFEFE" d="M165 102.23l.1.02H165.4l.1-.02.1-.02.1-.03.08-.04.1-.04.08-.07.08-.05.07-.07.08-.05.07-.07.05-.07.04-.06-.03-.04-.03.07-.05.07-.06.06-.07.07-.08.05-.08.06-.1.05-.07.05-.1.04-.1.03-.08.03h-.1l-.1.02h-.2l-.08-.02v.05zM164 100.94l.02.07v.08l.02.08v.08l.03.07.04.08.04.08.06.07.05.07.07.06.08.06.1.05.1.06.12.04.14.03.14.03v-.04l-.13-.04-.13-.03-.1-.04-.12-.06-.08-.05-.08-.07-.06-.06-.06-.06-.05-.06-.04-.07-.04-.07-.02-.07v-.08l-.03-.07v-.13H164zM165.35 99.28l-.13.02-.13.03-.13.04-.12.05-.12.05-.1.07-.1.07-.1.1-.1.08-.07.1-.08.1-.05.12-.05.12-.03.12-.03.13v.14h.05v-.13l.02-.12.02-.12.05-.12.06-.1.07-.1.07-.1.08-.08.1-.07.1-.07.1-.07.12-.04.1-.05.13-.03.12-.03.13-.02v-.04zM168 99.28v-.31l-.02-.14-.04-.13-.06-.12-.08-.1-.1-.1-.08-.1-.12-.07-.1-.06-.13-.05-.12-.06-.13-.03-.12-.02-.12-.02h-.1V98h.1l.12.03.1.02.13.04.12.04.12.05.1.05.1.08.1.08.1.1.07.1.05.12.04.12.02.13v.15l-.02.15h.05z"/>
    <path fill="#F9B51D" d="M166.68 100l-.03-.03h-.02l-.04-.02h-.34l-.06.02h-.05l-.06.02h-.18l-.03.02h-.04l-.04.03-.05.02-.04.02-.06.02-.05.03-.04.03-.05.04-.04.04-.06.04-.03.05-.02.06-.02.06V100.75l.03.06.04.07.06.03.06.02h.06l.07.02h.1l.1-.02h.1l.1-.04.08-.03.07-.03.07-.04.06-.04.05-.04.04-.04.05-.05.03-.03.03-.04v-.05l.03-.04.02-.04.02-.1v-.1l.03-.1v-.1z"/>
    <path fill="#FEFEFE" d="M174.34 101.6v-.1l.03-.14.05-.12.06-.1.08-.1.08-.05.1-.05h.2l.1.04.07.05.1.08.05.1.05.13.03.13v.1h-.1v-.1l-.03-.1-.03-.1-.05-.08-.06-.07-.06-.05-.08-.03h-.18l-.06.03-.07.05-.05.07-.05.1-.03.08-.02.1v.1h-.1z"/>
    <path fill="#FEFEFE" d="M174.34 101.27v.16l.04.12.05.1.06.1.06.07.08.06.1.04h.2l.1-.04.07-.06.1-.07.05-.1.05-.1.03-.12v-.16h-.1v.13l-.03.1-.03.1-.05.07-.06.06-.06.05-.08.03-.08.02h-.1l-.06-.04-.07-.05-.05-.06-.04-.08-.03-.1-.02-.1v-.13h-.1z"/>
    <path stroke="#FEFEFE" stroke-width=".22" d="M174.84 101.84h.08l.08-.03.06-.03.06-.05.05-.06.03-.06.02-.08v-.18l-.02-.07-.03-.07-.05-.06-.06-.05-.06-.04-.08-.03h-.18l-.06.03-.07.03-.05.04-.04.06-.03.07-.02.08v.17l.02.08.04.06.05.06.06.05.08.04.07.04h.1m0-.42h.04v-.02h.03l.02-.02v-.07l-.02-.02h-.17v.14h.1m-.1.2h-.1v-.42h.29l.02.02.03.02v.02l.02.02v.11l-.02.02-.02.02h-.07l.1.2h-.06l-.1-.2h-.1v.2m-.4-.2v-.1l.04-.1.05-.1.06-.06.06-.06.08-.04.1-.03h.2l.1.03.07.04.1.06.05.07.05.1.03.08v.2l-.03.1-.05.1-.06.06-.1.05-.07.04-.1.02h-.2l-.1-.03-.07-.05-.07-.06-.07-.08-.05-.1-.03-.08v-.1"/>
    <path fill="#FEFEFE" d="M168 101.93h1l.37-2.1v-.07l.04-.08.03-.08.03-.08.03-.1.03-.06.05-.08.06-.07.06-.05.07-.06.08-.06.1-.05.1-.04.1-.03.14-.03h.2l.17-.95h-.1l-.1.02-.08.02h-.1l-.07.04-.08.04-.07.04-.07.05-.05.05-.06.05-.07.06-.06.06-.05.05-.05.07-.05.06-.05.08.1-.67h-1l-.66 3.93z"/>
    <path stroke="#FEFEFE" stroke-width=".22" d="M168 101.93h1l.37-2.1v-.07l.04-.08.03-.08.03-.08.03-.1.03-.06.05-.08.06-.07.06-.05.07-.06.08-.06.1-.05.1-.04.1-.03.14-.03h.2l.17-.95h-.1l-.1.02-.08.02h-.1l-.07.04-.08.04-.07.04-.07.05-.05.05-.06.05-.07.06-.06.06-.05.05-.05.07-.05.06-.05.08.1-.67h-1l-.66 3.93"/>
    <path fill="#FEFEFE" d="M158.02 101.93h1.08l.36-2.1.02-.07.02-.08v-.08l.04-.07.03-.07.04-.07.05-.08.06-.06.07-.06.06-.05.1-.05.08-.04.1-.03.13-.03.13-.02H160.6v-.05l.03-.07.02-.08.02-.1.02-.1.03-.1.04-.1.02-.07.03-.06.04-.07.03-.06.03-.05.03-.04V98h.02-.02l-.02-.02h-.36l-.1.03h-.1l-.07.04-.08.04-.07.03-.07.06-.07.05-.06.06-.05.06-.06.06-.07.06-.05.07-.05.08-.06.08.13-.67h-1.08l-.7 3.93z"/>
    <path stroke="#FEFEFE" stroke-width=".22" d="M158.02 101.93h1.08l.36-2.1.02-.07.02-.08v-.08l.04-.07.03-.07.04-.07.05-.08.06-.06.07-.06.06-.05.1-.05.08-.04.1-.03.13-.03.13-.02H160.6v-.05l.03-.07.02-.08.02-.1.02-.1.03-.1.04-.1.02-.07.03-.06.04-.07.03-.06.03-.05.03-.04V98h.02-.02l-.02-.02h-.36l-.1.03h-.1l-.07.04-.08.04-.07.03-.07.06-.07.05-.06.06-.05.06-.06.06-.07.06-.05.07-.05.08-.06.08.13-.67h-1.08l-.7 3.93"/>
    <path fill="#F9B51D" d="M174.34 105.9v.16l.04.13.05.1.06.1.06.07.08.06.1.03.1.02.1-.02.1-.03.07-.06.1-.08.05-.1.05-.1.03-.14v-.15h-.1v.13l-.03.1-.03.1-.05.07-.06.07-.06.05-.08.03h-.18l-.06-.03-.07-.05-.05-.07-.04-.07-.03-.1-.02-.1V105.92h-.1z"/>
    <g fill="#2F4366" transform="translate(28 86)">
      <path d="M19.5 8.46H2.6C1.83 8.5 1.13 8 .9 7.26c-.16-.66.17-1.35.8-1.64l8.9-5.5c.27-.16.6-.16.88 0l8.96 5.5c.6.3.9 1 .74 1.65-.22.74-.92 1.23-1.7 1.2zM3 6.76h16.04l-8.02-4.92-8.02 4.93zM19.96 16.92h-2.12V11c0-.47-.38-.85-.85-.85-.48 0-.86.38-.86.85v5.92H11.9V11.1c0-.47-.4-.85-.86-.85-.47 0-.85.38-.85.84v5.82H5.94V11c0-.47-.38-.85-.85-.85s-.85.38-.85.85v5.92H2.12c-.47 0-.85.38-.85.85s.38.85.85.85h17.84c.47 0 .85-.38.85-.85s-.37-.85-.84-.85z"/>
      <rect width="22.08" height="1.69" y="20.31" rx="1"/>
    </g>
    <g stroke="#EAEBED" stroke-linecap="square">
      <path d="M61.5 70.5v52M125.5 70.5v52"/>
    </g>
    <g fill="#00569F">
      <path d="M89.13 92.32L87.1 104.8h3.25l2.03-12.48h-3.25zM84.35 92.32l-3.1 8.57-.37-1.85-1.1-5.6s-.13-1.13-1.54-1.13H73.1l-.05.2s1.57.34 3.4 1.44l2.83 10.83h3.4l5.18-12.48h-3.5zM106.4 100.38l1.7-4.67.96 4.68h-2.67zm3.57 4.4h3l-2.62-12.46h-2.62c-1.2 0-1.5.93-1.5.93l-4.86 11.54h3.4l.68-1.87h4.14l.37 1.86zM101.63 95.32l.46-2.68s-1.44-.54-2.94-.54c-1.6 0-5.45.7-5.45 4.13 0 3.22 4.5 3.26 4.5 4.95 0 1.7-4.03 1.38-5.36.32l-.48 2.8s1.45.7 3.67.7c2.22 0 5.58-1.15 5.58-4.27 0-3.24-4.54-3.54-4.54-4.95 0-1.4 3.17-1.22 4.57-.46"/>
    </g>
  </g>
</svg>
